<?xml version="1.0" encoding="utf-8"?>
<!-- Generator: Adobe Illustrator 17.1.0, SVG Export Plug-In . SVG Version: 6.00 Build 0)  -->
<!DOCTYPE svg PUBLIC "-//W3C//DTD SVG 1.1//EN" "http://www.w3.org/Graphics/SVG/1.1/DTD/svg11.dtd">
<svg version="1.1" id="svg2" xmlns:svg="http://www.w3.org/2000/svg"
	 xmlns="http://www.w3.org/2000/svg" xmlns:xlink="http://www.w3.org/1999/xlink" x="0px" y="0px" viewBox="0 0 1000 1000"
	 enable-background="new 0 0 1000 1000" xml:space="preserve">
<g id="layer1">
	<path id="path2417" fill="none" stroke="#8BA974" stroke-width="19" stroke-miterlimit="10" d="M463.1,874
		c-20.2-22.5-70.5-66.6-111.8-97.9c-122.5-92.5-139.2-106-189-151.8C70.4,539.9,31.5,455,31.6,339.9c0-56.2,4-77.9,19.6-110.9
		c26.8-56.2,66-98.1,116.4-123.5c35.6-18.1,53.1-26.1,112.6-26.5c62.2-0.3,75.2,6.9,111.8,27.1c44.5,24.4,90.3,76.7,99.8,113.9
		l5.9,23l14.5-31.6c81.5-178.6,341.9-175.8,432.5,4.4c28.7,57.2,31.9,179.3,6.4,248.1c-33.2,89.7-95.7,158.2-240,263
		c-94.7,68.8-201.8,172.7-209.3,187.3C493.1,931.1,501.3,916.8,463.1,874z"/>
	<g id="g2221" transform="translate(129.28571,-64.285714)">
	</g>
</g>
</svg>
