<?xml version="1.0" encoding="utf-8"?>
<!-- Generator: Adobe Illustrator 17.1.0, SVG Export Plug-In . SVG Version: 6.00 Build 0)  -->
<!DOCTYPE svg PUBLIC "-//W3C//DTD SVG 1.1//EN" "http://www.w3.org/Graphics/SVG/1.1/DTD/svg11.dtd">
<svg version="1.1" id="svg2" xmlns:svg="http://www.w3.org/2000/svg"
	 xmlns="http://www.w3.org/2000/svg" xmlns:xlink="http://www.w3.org/1999/xlink" x="0px" y="0px" viewBox="0 0 1000 1000"
	 enable-background="new 0 0 1000 1000" xml:space="preserve">
<g>
	<g>
		<g>
			<path fill="#8BA974" d="M291.1,509c0.1,0,0-0.1,0-0.1C291,508.9,291,509,291.1,509L291.1,509z"/>
		</g>
	</g>
	<g>
		<g>
			<path fill="#8BA974" d="M106.2,503.8c24.3,0.4,48.7,0.6,73.1,0.8c44.7,0.3,89.5,0.5,134.2,0.7c55.4,0.2,110.9,0.5,166.3,0.7
				c56.5,0.2,112.9,0.4,169.4,0.5c47.8,0.1,95.6,0.3,143.4,0.4c29.4,0,59,0.7,88.4-0.2c0.2,0,0.3,0,0.5,0c3.9-0.1-0.6,0,0.7,0
				c0.8,0,1.5-0.1,2.3-0.2c0.8-0.1,1.7-0.2,2.5-0.3c0.7-0.1,1.4-0.1,2.1-0.2c0.3,0,0.7-0.1,1-0.1c3.1-0.3-1.8,0,0-0.1
				c5.7-0.1,2.1-7.7-2.1-7.7c-0.2,0-0.3,0-0.5,0c0.6,0.2,1.2,0.4,1.8,0.6c-0.7-0.4-1.4-0.6-2.1-0.7c-0.4,0-0.7-0.1-1.1-0.1
				c-0.9-0.1-1.8-0.2-2.6-0.2c-2-0.2-4-0.3-6.1-0.4c-5.3-0.1-10.5-0.1-15.8-0.1c-15.1,0-30.2,0.1-45.3,0.1
				c-44.4,0-88.8,0.1-133.2,0.1c-55.3,0.1-110.5,0.1-165.8,0.1c-56.5,0-112.9,0.1-169.4,0.1c-48,0-95.9,0.1-143.9,0.2
				c-29.7,0.1-60.1,0-89.3,0.5c-3.3,0.1-6.5,0.1-9.8,0.2C100.9,498.6,103.4,503.7,106.2,503.8L106.2,503.8z"/>
		</g>
	</g>
	<g>
		<g>
			<g>
				<path fill="#8BA974" d="M890.7,502c0.6-9,8.6-15.1,16.8-16.8c10.4-2.2,22,1.3,32,4.3c5,1.5,10,3.3,14.8,5.3
					c4.6,1.9,8.9,4.3,13.6,5.9c8.2,2.8,19.8,4.6,26.4-2.4c2.2-2.3-2.2-6-4.5-5.4c-8.8,2.1-17.6,2-25.9-1.9
					c-10.4-4.9-21.2-8.7-32.5-11.3c-10.7-2.4-21.9-4.1-32.4,0.1c-8.1,3.2-14.5,11.8-13.4,20.6C886,502.7,890.5,505.4,890.7,502
					L890.7,502z"/>
			</g>
		</g>
		<g>
			<g>
				<path fill="#8BA974" d="M885,497.9c0.9,9.4,7.9,16.6,15.5,21.3c8.9,5.5,19.8,6.8,30,5.4c11.5-1.5,22.3-6.5,32.5-11.5
					c5.2-2.5,10.4-5.1,15.6-7.4c2.8-1.2,5.6-2.3,8.4-3.3c2.7-1,5.1-2.5,7.7-3.6c1.2-0.5,1-2.2,0.5-3.1c-0.8-1.6-2.5-2.4-4.2-2.3
					c-2.5,0.1-5.2,0-7.6,0.7c-2.6,0.7-5.2,1.7-7.8,2.8c-4.8,1.9-9.4,4.2-14,6.5c-9.5,4.7-19,9.6-29.3,12.3
					c-8.7,2.3-18.3,2.9-26.8-0.8c-7.5-3.3-12.5-8.8-15.5-16.3C889.5,496.6,884.7,494.8,885,497.9L885,497.9z"/>
			</g>
		</g>
		<path fill="#8BA974" d="M896,451.2c-6.2-10.6-17.8-5.9-25.1,0.3c-8.8,7.5-17.5,15.8-25.5,24.7c-0.8-9.9-4.7-20.2-9.3-26.8
			c-13.1-19-46.4-30-60.7-5.8c-10.9,18.5,4.5,43.6,26.6,39.3c7.5-1.4,17-9.3,10.2-17.1c-5.2-6-14.7-4.1-17.5,2.9
			c-0.7,1.7,0.5,3.6,2.2,4.7c-1.8,0.3-3.5,0.6-4.2,0.5c-10.2-1.1-13.2-11.7-10.4-20.1c4.5-13.3,19.7-18,32.2-13.4
			c16.6,6.1,27.8,31.1,20.6,47.7c-2.3,2.9-4.5,5.8-6.6,8.7c-0.9,0.8-1.9,1.5-3,2.1c-2.8,1.6,1.2,5.8,3.5,5.2c0.4-0.1,0.6-0.2,1-0.3
			c0.9,1.8,3.2,3.3,5,2.9c16.4-3.7,31.7-15.5,44.1-26.3C886.4,474,902.6,462.5,896,451.2z M885.5,459.1c-1,3.5-7.8,8.1-10.5,10.6
			c-4.9,4.5-10,8.7-15.5,12.6c-5.2,3.7-10.8,6.8-16.4,10c0.1-0.4,0.3-0.7,0.4-1.1c4.9-5.1,9.8-10.2,14.9-15.1
			c4.5-4.3,9-8.6,13.7-12.7C874.5,461.2,888.6,448.5,885.5,459.1z"/>
		<path fill="#8BA974" d="M882.2,522.4c-12.5-10.8-27.8-22.6-44.1-26.3c-1.8-0.4-4.1,1.1-5,2.9c-0.3-0.1-0.6-0.2-1-0.3
			c-2.3-0.6-6.3,3.6-3.5,5.2c1.1,0.6,2.1,1.4,3,2.1c2.1,2.9,4.3,5.8,6.6,8.7c7.2,16.5-4,41.6-20.6,47.7
			c-12.5,4.6-27.7-0.2-32.2-13.4c-2.8-8.3,0.2-19,10.4-20.1c0.7-0.1,2.4,0.2,4.2,0.5c-1.7,1.1-2.9,3-2.2,4.7
			c2.8,7,12.3,8.9,17.5,2.9c6.7-7.8-2.8-15.6-10.2-17.1c-22.1-4.3-37.5,20.8-26.6,39.3c14.3,24.2,47.5,13.1,60.7-5.8
			c4.6-6.6,8.5-16.9,9.3-26.8c8,8.8,16.7,17.1,25.5,24.7c7.4,6.3,18.9,10.9,25.1,0.3C905.8,540.3,889.6,528.8,882.2,522.4z
			 M875.4,539.5c-4.7-4.1-9.2-8.4-13.7-12.7c-5.1-4.9-10-10-14.9-15.1c-0.1-0.4-0.3-0.7-0.4-1.1c5.5,3.2,11.2,6.2,16.4,10
			c5.4,3.9,10.6,8.1,15.5,12.6c2.6,2.4,9.4,7.1,10.5,10.6C891.8,554.2,877.7,541.5,875.4,539.5z"/>
	</g>
	<g>
		<g>
			<g>
				<path fill="#8BA974" d="M111.2,503.4c1.1-9-5.8-16.9-13.3-20.8c-10.1-5.2-22.1-3.5-32.8-1.2c-11.1,2.3-22,6-32.3,10.8
					c-8.5,3.9-17.9,5.5-26.9,2.4c-3.1-1.1-3.2,2.6-1.4,4.1c7.4,6.1,17.4,5.5,26.1,2.9c4.4-1.3,8.4-3.5,12.5-5.3
					c5.1-2.2,10.3-4.1,15.7-5.8c9.9-3.1,20.7-6,31.1-4.8c8.7,0.9,16.7,7.2,17.1,16.4C107.1,504.1,110.8,506.2,111.2,503.4
					L111.2,503.4z"/>
			</g>
		</g>
		<g>
			<g>
				<path fill="#8BA974" d="M107.2,499.1c-3.3,7.8-8.8,13.4-16.4,17c-8.6,4-18.3,3.8-27.4,1.7c-10.4-2.4-19.9-7.4-29.3-12.1
					c-4.9-2.5-9.9-4.8-14.9-7c-2.5-1.1-5-2-7.6-2.8c-2.4-0.7-5.1-0.8-7.6-1.1c-1-0.1-1.9,0.6-1.9,1.6c0,1.5,1.3,2.6,2.6,3.1
					c2.7,1,5.2,2.2,7.8,3.2c2.5,0.9,5,1.8,7.5,2.9c5.3,2.3,10.4,4.9,15.6,7.5c10.4,5.2,20.9,9.9,32.4,12c9.8,1.8,20,0.7,28.9-4
					c7.6-4,14.1-11.3,15.1-20.1C112,499.1,108.2,496.8,107.2,499.1L107.2,499.1z"/>
			</g>
		</g>
		<path fill="#8BA974" d="M118.3,481.9c12.4,10.9,27.7,22.7,44,26.5c1.8,0.4,4.1-1.1,5-2.9c0.3,0.1,0.6,0.3,1,0.3
			c2.3,0.6,6.3-3.6,3.5-5.2c-1.1-0.6-2.1-1.4-3-2.1c-2.1-2.9-4.3-5.8-6.6-8.7c-7.1-16.6,4.2-41.6,20.8-47.6
			c12.5-4.5,27.7,0.3,32.1,13.5c2.8,8.3-0.3,19-10.5,20c-0.7,0.1-2.4-0.2-4.1-0.5c1.7-1.1,2.9-3,2.2-4.7c-2.8-7-12.3-8.9-17.5-3
			c-6.8,7.8,2.7,15.6,10.2,17.1c22.1,4.4,37.6-20.7,26.8-39.2c-14.2-24.3-47.5-13.3-60.7,5.6c-4.6,6.6-8.5,16.9-9.4,26.8
			c-8-8.9-16.6-17.2-25.4-24.8c-7.3-6.3-18.9-11-25.1-0.4C94.8,464,111,475.5,118.3,481.9z M125.2,464.9c4.7,4.1,9.2,8.4,13.6,12.8
			c5,4.9,9.9,10.1,14.8,15.2c0.1,0.4,0.3,0.7,0.4,1.1c-5.5-3.2-11.1-6.3-16.3-10c-5.4-3.9-10.5-8.1-15.4-12.6
			c-2.6-2.4-9.4-7.1-10.4-10.6C108.9,450.1,122.9,462.8,125.2,464.9z"/>
		<path fill="#8BA974" d="M97.9,553c6.2,10.6,17.8,6,25.1-0.2c8.9-7.5,17.5-15.8,25.6-24.5c0.8,9.9,4.6,20.2,9.2,26.9
			c13.1,19,46.3,30.2,60.6,6.1c11-18.4-4.3-43.6-26.4-39.4c-7.5,1.4-17,9.2-10.3,17c5.2,6,14.7,4.1,17.5-2.8
			c0.7-1.7-0.5-3.6-2.2-4.7c1.8-0.3,3.5-0.5,4.2-0.5c10.2,1.1,13.2,11.8,10.3,20.1c-4.6,13.2-19.7,17.9-32.2,13.3
			c-16.6-6.2-27.7-31.3-20.5-47.8c2.3-2.9,4.5-5.7,6.7-8.7c0.9-0.7,1.9-1.5,3-2.1c2.8-1.6-1.1-5.8-3.5-5.2c-0.4,0.1-0.6,0.2-1,0.3
			c-0.9-1.8-3.2-3.3-5-2.9c-16.4,3.7-31.7,15.3-44.2,26.1C107.6,530.3,91.3,541.7,97.9,553z M108.4,545.2c1-3.5,7.9-8.1,10.5-10.5
			c4.9-4.5,10.1-8.7,15.5-12.5c5.2-3.7,10.9-6.7,16.4-9.9c-0.2,0.3-0.3,0.7-0.4,1.1c-4.9,5.1-9.8,10.1-14.9,15.1
			c-4.5,4.3-9.1,8.6-13.7,12.7C119.4,543.1,105.3,555.8,108.4,545.2z"/>
	</g>
</g>
</svg>
